<svg id="Ebene_1" data-name="Ebene 1" xmlns="http://www.w3.org/2000/svg" viewBox="0 0 32 32"><defs><style>.cls-1{stroke:#000;stroke-miterlimit:10;stroke-width:0.75px;}</style></defs><title>ux</title><path class="cls-1" d="M27.22,15.69l-.44-.39-5.74,5,.44.38Z"/><path class="cls-1" d="M26.36,16v-.54H12.5V16Z"/><path class="cls-1" d="M21.48,10.71,21,11.1l5.74,5,.44-.38Z"/><path d="M27.22,9.94H25.51V7.67c0-.88-.29-1.15-1.16-1.15H7.66c-.88,0-1.14.27-1.14,1.16V24.31c0,.92.27,1.2,1.17,1.2H24.32c.91,0,1.18-.29,1.19-1.21V22.1h1.66a26,26,0,0,1,0,3.06,2.5,2.5,0,0,1-2.64,2.06h-17a2.57,2.57,0,0,1-2.77-2.71q0-8.51,0-17A2.55,2.55,0,0,1,7.5,4.79h17a2.56,2.56,0,0,1,2.71,2.76Z"/></svg>