<svg id="Ebene_1" data-name="Ebene 1" xmlns="http://www.w3.org/2000/svg" viewBox="0 0 32 32"><defs><style>.cls-1{isolation:isolate;}.cls-2{fill:#fcfafa;}</style></defs><title>I_icon</title><rect class="cls-1" width="32" height="32" rx="6.17"/><path d="M17.46,8.5a3.18,3.18,0,0,1-.2,1.12,2.57,2.57,0,0,1-.55.9,2.7,2.7,0,0,1-.9.61,3.21,3.21,0,0,1-1.23.23,2.89,2.89,0,0,1-1.2-.24,2.63,2.63,0,0,1-.9-.62,2.6,2.6,0,0,1-.57-.91,3.1,3.1,0,0,1-.2-1.09,2.86,2.86,0,0,1,.22-1.16,2.5,2.5,0,0,1,1.51-1.43,3.21,3.21,0,0,1,1.14-.19,3.4,3.4,0,0,1,1.18.2,2.71,2.71,0,0,1,.91.57,2.65,2.65,0,0,1,.58.88A3,3,0,0,1,17.46,8.5ZM12.62,26.87,10.81,12.4h7.54L16.53,26.87Z"/><path class="cls-2" d="M18.88,7.91A3.18,3.18,0,0,1,18.69,9a2.45,2.45,0,0,1-.56.9,2.57,2.57,0,0,1-.89.61,3.21,3.21,0,0,1-1.23.23,2.86,2.86,0,0,1-1.2-.24,2.54,2.54,0,0,1-.9-.62A2.6,2.6,0,0,1,13.34,9a2.89,2.89,0,0,1-.2-1.09,2.86,2.86,0,0,1,.22-1.16A2.48,2.48,0,0,1,14,5.87a2.65,2.65,0,0,1,.92-.55A3.17,3.17,0,0,1,16,5.13a3.4,3.4,0,0,1,1.18.2,2.58,2.58,0,0,1,.91.58,2.51,2.51,0,0,1,.58.87A3,3,0,0,1,18.88,7.91ZM14.05,26.28,12.24,11.81h7.53L18,26.28Z"/></svg>