<svg id="Ebene_1" data-name="Ebene 1" xmlns="http://www.w3.org/2000/svg" viewBox="0 0 32 32"><defs><style>.cls-1{fill:none;stroke:#000;stroke-miterlimit:10;}</style></defs><title>icon_outline</title><path class="cls-1" d="M13.46,13.12h6.78c0,.18,0,.34,0,.5-.07,1.16-.13,2.31-.2,3.47l-.24,4.17a.8.8,0,0,1-.71.77h-.6c-1.22,0-2.44,0-3.66,0a.88.88,0,0,1-.9-.92c-.08-1.77-.2-3.53-.3-5.3,0-.8-.09-1.59-.14-2.39Z"/><path class="cls-1" d="M18.47,11.85h1.94c.23,0,.31.1.31.35,0,.5,0,.53-.47.53h-6.9c-.14,0-.32,0-.35-.15A1.47,1.47,0,0,1,13,12c0-.13.17-.14.28-.14h2l.06-.38a.24.24,0,0,1,.25-.24h2.62c.15,0,.22.09.24.25Z"/></svg>