<svg id="Ebene_1" data-name="Ebene 1" xmlns="http://www.w3.org/2000/svg" viewBox="0 0 32 32"><title>ux</title><path d="M13.14,2l-.48,2.58A11.92,11.92,0,0,0,7.78,7.39L5.3,6.52l-2.85,5,2,1.69A12.09,12.09,0,0,0,4,16a12.09,12.09,0,0,0,.42,2.83l-2,1.69,2.85,5,2.47-.88a12,12,0,0,0,4.89,2.83L13.14,30h5.72l.48-2.57a11.85,11.85,0,0,0,4.88-2.83l2.47.88,2.86-5-2-1.69A11.6,11.6,0,0,0,28,16a12.09,12.09,0,0,0-.42-2.83l2-1.69-2.85-5-2.47.87a12,12,0,0,0-4.89-2.81L18.86,2Zm1.59,1h2.54l.42,2.23.68.17a10.56,10.56,0,0,1,5.37,3.1l.47.5,2.15-.75,1.28,2.2L25.92,12l.2.66a10.52,10.52,0,0,1,0,6.22l-.2.66L27.64,21l-1.28,2.2-2.15-.77-.47.52a10.65,10.65,0,0,1-5.37,3.11l-.68.15-.42,2.24H14.73l-.42-2.24-.68-.15A10.65,10.65,0,0,1,8.26,23l-.48-.52-2.15.77L4.36,21l1.72-1.49-.2-.66a10.52,10.52,0,0,1,0-6.22l.2-.66L4.36,10.5,5.63,8.3l2.16.75.47-.5a10.56,10.56,0,0,1,5.37-3.1l.68-.17ZM16,10a6,6,0,1,0,6,6A6,6,0,0,0,16,10Zm0,1.31A4.69,4.69,0,1,1,11.31,16,4.68,4.68,0,0,1,16,11.31Z"/></svg>