<svg id="Ebene_1" data-name="Ebene 1" xmlns="http://www.w3.org/2000/svg" viewBox="0 0 32 32"><defs><style>.cls-1{fill:#fff;}</style></defs><title>ux</title><path id="user" class="cls-1" d="M26.77,26.7H4a.43.43,0,0,1-.43-.43A9.74,9.74,0,0,1,9.15,17.9a.48.48,0,0,1,.18,0,.43.43,0,0,1,.37.22,6.46,6.46,0,0,0,8.81,2.5,6.39,6.39,0,0,0,2.5-2.5.45.45,0,0,1,.38-.22.33.33,0,0,1,.17,0,9.72,9.72,0,0,1,5.63,8.37.39.39,0,0,1-.12.3A.43.43,0,0,1,26.77,26.7ZM9.16,18.85a8.75,8.75,0,0,0-4.76,7H26.31a8.61,8.61,0,0,0-4.76-7,7.33,7.33,0,0,1-12.39,0Zm6.2,1a5,5,0,0,1-5-5V10.29a5,5,0,0,1,10,0v4.57a5,5,0,0,1-5,5Zm0-13.69a4.14,4.14,0,0,0-4.14,4.14v4.56a4.14,4.14,0,0,0,8.27,0V10.3a4.13,4.13,0,0,0-4.13-4.14Z"/></svg>