<svg id="Ebene_1" data-name="Ebene 1" xmlns="http://www.w3.org/2000/svg" viewBox="0 0 32 32"><defs><style>.cls-1{fill:#fcfafa;}</style></defs><title>Icon_i</title><path d="M18.25,8.5a3.18,3.18,0,0,1-.19,1.12,2.59,2.59,0,0,1-.56.9,2.52,2.52,0,0,1-.9.61,3.17,3.17,0,0,1-1.23.23,2.92,2.92,0,0,1-1.2-.24,2.73,2.73,0,0,1-.9-.62,2.58,2.58,0,0,1-.56-.91A2.9,2.9,0,0,1,12.5,8.5a3,3,0,0,1,.22-1.16,2.64,2.64,0,0,1,.6-.88,2.7,2.7,0,0,1,.91-.55,3.25,3.25,0,0,1,1.14-.19,3.45,3.45,0,0,1,1.19.2,2.77,2.77,0,0,1,.9.57,2.5,2.5,0,0,1,.58.88A3,3,0,0,1,18.25,8.5ZM13.42,26.87,11.6,12.4h7.54L17.32,26.87Z"/><path class="cls-1" d="M19.68,7.91A3.18,3.18,0,0,1,19.48,9a2.43,2.43,0,0,1-.55.9,2.61,2.61,0,0,1-.9.61,3.17,3.17,0,0,1-1.23.23,2.92,2.92,0,0,1-1.2-.24,2.63,2.63,0,0,1-.9-.62A2.6,2.6,0,0,1,14.13,9a3.1,3.1,0,0,1-.2-1.09,3,3,0,0,1,.22-1.16,2.64,2.64,0,0,1,.6-.88,2.61,2.61,0,0,1,.91-.55,3.21,3.21,0,0,1,1.14-.19,3.4,3.4,0,0,1,1.18.2,2.58,2.58,0,0,1,.91.58,2.38,2.38,0,0,1,.58.87A3,3,0,0,1,19.68,7.91ZM14.85,26.28,13,11.81h7.54L18.75,26.28Z"/></svg>