<svg id="Ebene_1" data-name="Ebene 1" xmlns="http://www.w3.org/2000/svg" viewBox="0 0 32 32"><defs><style>.cls-1{fill:#fff;stroke:#000;stroke-miterlimit:10;}</style></defs><title>icon_outline</title><path class="cls-1" d="M13.27,13a2.65,2.65,0,0,1,2.8.29,2.79,2.79,0,0,1,1.1,1.87.34.34,0,0,0,.19.26,3,3,0,0,1,1.48,3.12,2.82,2.82,0,0,1-2.42,2.36,2.54,2.54,0,0,1-1.25-.16c-.13-.05-.2-.05-.29.07a2.71,2.71,0,0,1-4.23.23.24.24,0,0,0-.23-.06,3.25,3.25,0,0,1-4.2-3.2,3.37,3.37,0,0,1,1.29-2.76.44.44,0,0,0,.18-.38,3.05,3.05,0,0,1,3.48-3.13,2.89,2.89,0,0,1,1.95,1.26Z"/><path class="cls-1" d="M11,11.21a2.59,2.59,0,0,1,4.44.12,6.52,6.52,0,0,1,1-.19,2.46,2.46,0,0,1,2.5,2.06.46.46,0,0,0,.27.36A2.68,2.68,0,0,1,19.3,18l-.06,0c-.1-.38-.15-.77-.28-1.14a2.93,2.93,0,0,0-1.27-1.56.61.61,0,0,1-.29-.43,3.07,3.07,0,0,0-3.82-2.28.28.28,0,0,1-.36-.12,3.14,3.14,0,0,0-2.12-1.25Z"/></svg>