<svg id="Ebene_1" data-name="Ebene 1" xmlns="http://www.w3.org/2000/svg" viewBox="0 0 32 32"><defs><style>.cls-1{fill:none;stroke:#000;stroke-miterlimit:10;stroke-width:0.75px;}</style></defs><title>Profil_icon</title><path class="cls-1" d="M9.05,6.55H23c0,.36,0,.69-.06,1-.14,2.37-.27,4.75-.41,7.12-.16,2.85-.32,5.71-.5,8.57a1.61,1.61,0,0,1-1.44,1.57c-.41,0-.82,0-1.23,0-2.51,0-5,0-7.52,0A1.8,1.8,0,0,1,10,23c-.17-3.63-.4-7.26-.61-10.88-.1-1.64-.2-3.28-.29-4.91C9,7,9.05,6.78,9.05,6.55Z"/><rect x="11.21" y="12.84" width="9.93" height="6.42" rx="1.46"/></svg>