<svg id="Ebene_1" data-name="Ebene 1" xmlns="http://www.w3.org/2000/svg" viewBox="0 0 32 32"><defs><style>.cls-1{isolation:isolate;}.cls-2{fill:#fff;}</style></defs><title>Profil_icon</title><rect class="cls-1" y="0.1" width="32" height="32"/><path id="user" class="cls-2" d="M27.41,26.8H4.59a.43.43,0,0,1-.43-.43A9.76,9.76,0,0,1,9.8,18,.47.47,0,0,1,10,18a.45.45,0,0,1,.38.22,6.48,6.48,0,0,0,11.31,0A.43.43,0,0,1,22,18a.58.58,0,0,1,.18,0,9.74,9.74,0,0,1,5.63,8.37.42.42,0,0,1-.12.3A.44.44,0,0,1,27.41,26.8ZM9.81,19a8.72,8.72,0,0,0-4.76,7H27a8.63,8.63,0,0,0-4.76-7,7.34,7.34,0,0,1-10.12,2.28A7.27,7.27,0,0,1,9.81,19ZM16,20a5,5,0,0,1-5-5V10.4a5,5,0,1,1,10,0V15a5,5,0,0,1-5,5ZM16,6.26a4.14,4.14,0,0,0-4.13,4.14V15a4.14,4.14,0,0,0,8.27,0V10.4A4.14,4.14,0,0,0,16,6.26Z"/></svg>