<svg id="Ebene_1" data-name="Ebene 1" xmlns="http://www.w3.org/2000/svg" viewBox="0 0 32 32"><defs><style>.cls-1{fill:#fff;}</style></defs><title>ux</title><path id="password" class="cls-1" d="M16,30A10.87,10.87,0,0,1,9.83,10.16a11,11,0,0,1,12.33,0A10.86,10.86,0,0,1,16,30ZM16,9.25A9.7,9.7,0,0,0,10.41,11,9.94,9.94,0,1,0,16,9.25ZM16,24.8A1.81,1.81,0,0,1,14.2,23V19a3.08,3.08,0,0,1-.75-4.3,3.12,3.12,0,0,1,5.67,1.77A3.1,3.1,0,0,1,17.81,19V23A1.81,1.81,0,0,1,16,24.8Zm0-10.41a2.12,2.12,0,0,0-1.06,3.95.49.49,0,0,1,.26.43V23a.8.8,0,0,0,.8.81.82.82,0,0,0,.82-.81V18.77a.48.48,0,0,1,.25-.43,2.12,2.12,0,0,0,.75-2.9,2.15,2.15,0,0,0-1.81-1Zm6.2-5.17a.5.5,0,0,1-.5-.5,5.69,5.69,0,1,0-11.38,0,.5.5,0,0,1-.5.5.5.5,0,0,1-.5-.5,6.69,6.69,0,1,1,13.38,0,.5.5,0,0,1-.5.5Z"/></svg>