<svg id="Ebene_1" data-name="Ebene 1" xmlns="http://www.w3.org/2000/svg" viewBox="0 0 109.15 24.39"><defs><style>.cls-1{fill:#fcfafa;}</style></defs><title>Logo_FINAL</title><path class="cls-1" d="M10.53,12.83v5.64H9.14v-5.6L4.42,3.43H6l3.44,7c0,.09.1.21.17.38l.25.64h0a3.42,3.42,0,0,1,.18-.44c.08-.17.17-.36.29-.57l3.59-7h1.49Z"/><path class="cls-1" d="M18.33,18.72a5.41,5.41,0,0,1-2.14-.4,4.64,4.64,0,0,1-1.62-1.13,5,5,0,0,1-1-1.74,6.74,6.74,0,0,1-.36-2.26,7.19,7.19,0,0,1,.38-2.4A4.92,4.92,0,0,1,14.64,9a4.57,4.57,0,0,1,1.68-1.13,5.94,5.94,0,0,1,2.2-.39,5.38,5.38,0,0,1,2.1.39A4.33,4.33,0,0,1,22.21,9a4.91,4.91,0,0,1,1,1.77,7.42,7.42,0,0,1,.35,2.36,7,7,0,0,1-.36,2.29,5.3,5.3,0,0,1-1,1.78,4.91,4.91,0,0,1-1.64,1.15A5.62,5.62,0,0,1,18.33,18.72Zm.11-10.08a4.11,4.11,0,0,0-1.6.3,3.34,3.34,0,0,0-1.21.89,4,4,0,0,0-.79,1.42,6.36,6.36,0,0,0-.27,1.92A5.64,5.64,0,0,0,14.84,15a4.16,4.16,0,0,0,.77,1.39,3.16,3.16,0,0,0,1.22.88,3.86,3.86,0,0,0,1.59.32,4.13,4.13,0,0,0,1.59-.3,3.21,3.21,0,0,0,1.18-.87A4,4,0,0,0,21.92,15a6.78,6.78,0,0,0,.24-1.89,5,5,0,0,0-1-3.31A3.4,3.4,0,0,0,18.44,8.64Z"/><path class="cls-1" d="M32.33,18.47V16.64h0a3.59,3.59,0,0,1-3.39,2.08q-3.82,0-3.83-4.68V7.72h1.34v6.07a4.77,4.77,0,0,0,.69,2.85,2.44,2.44,0,0,0,2.1.93,3.1,3.1,0,0,0,1.27-.27,2.79,2.79,0,0,0,1-.76,3.58,3.58,0,0,0,.65-1.17,4.78,4.78,0,0,0,.23-1.51V7.72h1.34V18.47Z"/><path class="cls-1" d="M41.36,9.1a2,2,0,0,0-1.21-.35A2,2,0,0,0,39.2,9a2.56,2.56,0,0,0-.72.55,3.15,3.15,0,0,0-.52.8,5.14,5.14,0,0,0-.35.95,6.78,6.78,0,0,0-.19,1,7.94,7.94,0,0,0-.06,1v5.26H36V7.72h1.33V10h0a5.07,5.07,0,0,1,.48-1,3.49,3.49,0,0,1,.67-.79,3,3,0,0,1,.82-.49,2.7,2.7,0,0,1,.94-.17,3.3,3.3,0,0,1,.58.05,2.93,2.93,0,0,1,.47.12Z"/><path class="cls-1" d="M52.14,18.52a2.53,2.53,0,0,1-.45.19,5.21,5.21,0,0,1-.72.19c-.29.05-.62.1-1,.13a12.91,12.91,0,0,1-1.32.06,6.81,6.81,0,0,1-2.41-.41,5.66,5.66,0,0,1-1.85-1.14,5,5,0,0,1-1.18-1.72,5.42,5.42,0,0,1-.42-2.15A6.22,6.22,0,0,1,43.3,11a5,5,0,0,1,1.39-1.83,5.75,5.75,0,0,1,2-1.06,8.46,8.46,0,0,1,2.44-.34c.39,0,.75,0,1.09,0s.63.07.88.11.47.1.64.15a1.28,1.28,0,0,1,.36.15v3.5a1.71,1.71,0,0,0-.37-.22,4.28,4.28,0,0,0-.52-.22,4.21,4.21,0,0,0-.61-.16,2.85,2.85,0,0,0-.64-.07,2.81,2.81,0,0,0-2,.63,2.3,2.3,0,0,0-.68,1.76A2.25,2.25,0,0,0,48,15.19a2.62,2.62,0,0,0,1.83.61,4.62,4.62,0,0,0,1.37-.19,5.7,5.7,0,0,0,.94-.41Z"/><path class="cls-1" d="M60.14,18.82V12.67a1.86,1.86,0,0,0-.32-1.21,1.1,1.1,0,0,0-.91-.4,1,1,0,0,0-.91.46,2.05,2.05,0,0,0-.32,1.18v6.12H53.2v-16h4.48V9.51h0a4.75,4.75,0,0,1,.52-.62,3.76,3.76,0,0,1,1.58-1,3.71,3.71,0,0,1,1.08-.15,3.78,3.78,0,0,1,1.62.31,3,3,0,0,1,1.11.9,4,4,0,0,1,.65,1.39,7.86,7.86,0,0,1,.2,1.82v6.62Z"/><path class="cls-1" d="M77.76,13.24a6.83,6.83,0,0,1-.39,2.36,4.89,4.89,0,0,1-1.18,1.85,5.19,5.19,0,0,1-2,1.2,7.81,7.81,0,0,1-2.73.44,8,8,0,0,1-2.64-.4,5.24,5.24,0,0,1-2-1.14,4.71,4.71,0,0,1-1.2-1.79,6.28,6.28,0,0,1-.42-2.39A5.86,5.86,0,0,1,65.76,11a4.89,4.89,0,0,1,1.31-1.75,5.59,5.59,0,0,1,2-1.07,8.23,8.23,0,0,1,2.49-.36,7.48,7.48,0,0,1,2.83.48A5.79,5.79,0,0,1,76.3,9.53a5,5,0,0,1,1.11,1.75A5.83,5.83,0,0,1,77.76,13.24Zm-4.55,0a3.89,3.89,0,0,0-.08-.85,2.1,2.1,0,0,0-.28-.7,1.31,1.31,0,0,0-.52-.47,1.63,1.63,0,0,0-.8-.18,1.44,1.44,0,0,0-1.27.6,3,3,0,0,0-.41,1.71A4.29,4.29,0,0,0,70,14.54a1.94,1.94,0,0,0,.35.75,1.26,1.26,0,0,0,.55.4,2.09,2.09,0,0,0,.67.11,1.4,1.4,0,0,0,1.24-.62A3.46,3.46,0,0,0,73.21,13.26Z"/><path d="M83.26,5.54a2.14,2.14,0,0,1-.14.8,1.77,1.77,0,0,1-.4.66,1.91,1.91,0,0,1-.65.44,2.44,2.44,0,0,1-.89.16,2.16,2.16,0,0,1-.86-.17,1.93,1.93,0,0,1-1.06-1.11,2.08,2.08,0,0,1-.15-.78,2.17,2.17,0,0,1,.16-.84,2.06,2.06,0,0,1,.43-.64,1.89,1.89,0,0,1,.66-.39,2.21,2.21,0,0,1,.82-.14,2.35,2.35,0,0,1,.86.15,1.72,1.72,0,0,1,.66.41,1.76,1.76,0,0,1,.41.63A2.18,2.18,0,0,1,83.26,5.54ZM79.77,18.8,78.46,8.35h5.45L82.6,18.8Z"/><path class="cls-1" d="M84.29,5.11a2.38,2.38,0,0,1-.14.81A1.84,1.84,0,0,1,83.1,7a2.28,2.28,0,0,1-.89.16A2.13,2.13,0,0,1,81.35,7a2.26,2.26,0,0,1-.66-.45,2,2,0,0,1-.4-.66,2.13,2.13,0,0,1-.15-.79,2.06,2.06,0,0,1,.16-.84,1.81,1.81,0,0,1,1.09-1,2.39,2.39,0,0,1,.82-.14,2.35,2.35,0,0,1,.86.15,2.06,2.06,0,0,1,.65.41,1.87,1.87,0,0,1,.42.64A2.09,2.09,0,0,1,84.29,5.11ZM80.8,18.38,79.49,7.93h5.44L83.62,18.38Z"/><path class="cls-1" d="M95,18.52a2.53,2.53,0,0,1-.45.19,5.21,5.21,0,0,1-.72.19c-.29.05-.62.1-1,.13a13,13,0,0,1-1.32.06,6.77,6.77,0,0,1-2.41-.41,5.66,5.66,0,0,1-1.85-1.14,5,5,0,0,1-1.18-1.72,5.42,5.42,0,0,1-.42-2.15A6.38,6.38,0,0,1,86.14,11a5.14,5.14,0,0,1,1.4-1.83,5.67,5.67,0,0,1,2-1.06A8.46,8.46,0,0,1,92,7.78c.39,0,.75,0,1.09,0s.63.07.88.11.47.1.64.15a1.28,1.28,0,0,1,.36.15v3.5a2,2,0,0,0-.37-.22,4.28,4.28,0,0,0-.52-.22,4.21,4.21,0,0,0-.61-.16,3.35,3.35,0,0,0-2.64.56,2.33,2.33,0,0,0-.67,1.76,2.25,2.25,0,0,0,.67,1.74,2.62,2.62,0,0,0,1.83.61,4.62,4.62,0,0,0,1.37-.19A5.7,5.7,0,0,0,95,15.2Z"/><path class="cls-1" d="M100.36,14.72a1.65,1.65,0,0,0,.19.52,1.57,1.57,0,0,0,.46.47,2.36,2.36,0,0,0,.78.36,4.38,4.38,0,0,0,1.18.14,8.88,8.88,0,0,0,.91-.06c.29,0,.56-.09.82-.15s.49-.12.7-.19l.54-.2v2.84l-.65.22a7,7,0,0,1-.87.21c-.33.06-.7.12-1.1.16s-.86.06-1.34.06a8,8,0,0,1-2.63-.4,5.09,5.09,0,0,1-1.86-1.14,4.56,4.56,0,0,1-1.11-1.71A6.28,6.28,0,0,1,96,13.69a7,7,0,0,1,.24-1.92,5.61,5.61,0,0,1,.66-1.51,4.62,4.62,0,0,1,1-1.12,5.26,5.26,0,0,1,1.19-.77,6.09,6.09,0,0,1,1.31-.43,6.25,6.25,0,0,1,1.34-.15,6,6,0,0,1,2.45.45,4.48,4.48,0,0,1,2.55,2.85A6.71,6.71,0,0,1,107,13v1.68Zm2.69-2.35a4.59,4.59,0,0,0,0-.62,1.69,1.69,0,0,0-.19-.6,1.11,1.11,0,0,0-.4-.46,1.21,1.21,0,0,0-.7-.18,1,1,0,0,0-.62.19,1.58,1.58,0,0,0-.42.47,2.16,2.16,0,0,0-.24.61,2.7,2.7,0,0,0-.1.59Z"/></svg>